<?xml version="1.0" encoding="utf-8"?>
<!-- Generator: Adobe Illustrator 24.1.2, SVG Export Plug-In . SVG Version: 6.00 Build 0)  -->
<svg version="1.1" id="Layer_1" xmlns="http://www.w3.org/2000/svg" xmlns:xlink="http://www.w3.org/1999/xlink" x="0px" y="0px"
	 viewBox="0 0 1133.9 678.9" style="enable-background:new 0 0 1133.9 678.9;" xml:space="preserve">
<style type="text/css">
	.st0{opacity:0.1;}
	.st1{fill:#27ADE3;}
	.st2{fill:#FFFFFF;}
	.st3{fill:#ED3338;}
	.st4{fill:#8FC74B;}
	.st5{fill:#274B8D;}
</style>
<g class="st0">
	<path d="M49.9,502.7L49.9,502.7c0,16.1,2,26.2,17.7,26.2c14.9,0,22.7-11.7,22.7-28.4c0-17.9-10.1-30.5-29.4-30.5
		c-11.1,0-11.1,0.2-11.1,8.4L49.9,502.7L49.9,502.7z M49.9,455.1L49.9,455.1c0,5.4,0.2,5.8,10.7,5.8c17.3,0,23.8-11.3,23.8-23.7
		c0-17.9-10.9-26.8-24.8-26.8c-9.5,0-9.7,1.6-9.7,10.7V455.1z M22.1,435.1c0-20.8-0.4-22.9-8.9-24.1l-5.4-0.8
		c-1.8-1-2.2-7.2,0.8-7.4c15.3-1,30-1.9,50.1-1.9c19.3,0,32.2,2.3,41.1,7.6c8.7,5.4,13.9,14,13.9,26.2c0,17.3-14.3,24.1-20.5,25.8
		c-2,0.4-4,1.2-4,2.3c0,0.6,1,1.2,2.8,1.6c15.9,3.5,29.4,14.2,29.6,34.2c0.2,19-10.9,30.1-23.6,34.6s-27.8,5.2-40.1,5.2
		c-7.2,0-14.9-0.8-20.7-0.8c-9.9,0-19.7,0.2-31.2,0.6c-1.6-1.2-1.6-6.6,0-7.2l5.8-1.2c9.1-1.9,10.3-3.3,10.3-21.8V435.1z"/>
	<path d="M191.2,480L191.2,480c4.6,0,5.6-0.6,4-6l-5.2-16.7c-2.8-8.9-6.4-20-8.3-24.3c-1.6,4.7-5.6,15.9-8.7,25.3l-5,15.5
		c-1.8,5.6-0.8,6.2,4.2,6.2H191.2z M168.3,491c-4.8,0-5.4,0.2-6.6,4.1l-7.9,23.9c-1.2,4.1-1.4,5.8-1.4,7.4c0,1.2,2.6,2.5,8.3,3.5
		l6,1c1.2,1.4,1.6,6.2-0.4,7.2c-7-0.4-14.3-0.4-22.7-0.6c-6.8,0-11.5,0.6-20.7,0.6c-2.2-1.2-2-5.6-0.6-7.2l5.4-0.6
		c4.8-0.6,8.9-2.3,12.3-10.3c3.4-8.2,7.2-18.1,12.7-33l18.3-50.3c4.6-13,8.1-20.2,7.4-26.2c9.7-2.3,17.1-12.4,17.5-12.4
		c2.6,0,3.8,1,4.6,4.1c1.6,6,4,13.6,9.1,28.2l27.4,80.8c4.2,12.4,6,17.1,13.5,18.3l7.6,1.2c1.2,1,1.6,6-0.2,7.2
		c-9.7-0.4-20.5-0.6-31-0.6c-10.1,0-17.9,0.2-27.2,0.6c-2.2-1.2-2.6-5.6-0.4-7.2l6.4-1c4.6-0.8,5.4-2.3,5.4-3.5
		c0-1.4-1.4-6.4-3.8-14l-5.4-17.7c-1-3.3-2.6-3.7-9.7-3.7h-23.9L168.3,491L168.3,491z"/>
	<path d="M383.9,502.5c0,13.4,0,26.4,0.4,33.2c-1.4,2.5-7,4.7-11.9,4.7c-0.2,0-6.8-10.5-16.3-22.5L309.6,459
		c-11.7-14.6-18.3-23.3-21.9-26.4c-1,2.1-1,5.6-1,13.2v40c0,16.7,0.8,32.1,3,37.7c1.8,4.3,6.4,5.8,11.7,6.6l5.6,0.8
		c1.6,1.6,1.2,6,0,7.2c-10.9-0.4-18.9-0.6-27-0.6c-7.4,0-14.9,0.2-22.5,0.6c-1.2-1.2-1.6-5.6,0-7.2l3.4-0.6c5.4-1,9.5-2.5,11.1-6.8
		c2.2-5.6,2.8-21,2.8-37.7v-52.3c0-11.3-0.2-14.6-1.4-17.5c-1.6-3.5-4.4-6-11.5-7l-5.6-0.8c-1.4-1.6-1.2-6.6,0.8-7.2
		c9.5,0.4,19.5,0.6,27.8,0.6c6.8,0,12.7-0.2,16.9-0.6c2,9.3,15.1,24.9,33.2,47l16.9,20.4c8.9,10.7,14.7,17.9,19.3,22.7
		c0.8-2.1,0.8-5.6,0.8-9.3v-28.4c0-16.7-0.8-32.1-3-37.7c-1.8-4.3-6.2-5.8-11.7-6.6l-5.4-0.8c-1.6-1.6-1.2-6,0-7.2
		c10.9,0.4,18.7,0.6,27,0.6c7.4,0,14.7-0.2,22.5-0.6c1.2,1.2,1.6,5.6,0,7.2l-3.6,0.6c-5.2,0.8-9.1,2.5-10.9,6.8
		c-2.2,5.6-3,21-3,37.7L383.9,502.5L383.9,502.5z"/>
	<path d="M455,456.4c0,6.8,1.2,7.6,3.6,7.6c4.2,0,12.7-8,16.1-11.9c10.7-12.2,22.3-24.9,28.8-34.6c1.8-2.7,2.6-4.5,2.6-5.4
		c0-0.8-0.8-2.3-3.4-2.7l-7-1.2c-2.2-1.4-1.8-6.4,0.8-7.2c10.3,0.4,17.7,0.6,25,0.6c7.5,0,16.3-0.2,24.4-0.6c2.4,0.8,2.6,5.6,1,7.2
		c-7,0.8-13.1,1.9-17.3,3.7c-8.1,3.3-16.7,11.1-29.8,26.4l-9.3,10.7c-2,2.3-2.6,3.9-2.6,4.7c0,1,1.2,3.5,7.2,12.8
		c10.1,15.5,21.9,35.2,35.6,53.8c5.4,7.4,9.3,8.9,14.9,9.7l6.4,1c1.2,1.9,1.2,6.2-0.6,7.2c-10.1-0.4-19.7-0.6-29-0.6
		c-10.3,0-20.3,0.2-31.6,0.6c-2.6-0.8-2.6-6-0.4-7.2l5-1.2c2.2-0.6,3.4-1.2,3.4-2.1c0-0.8-0.4-2.3-1.6-4.1
		c-1.2-1.9-9.7-15.2-11.7-18.3l-10.7-16.7c-7.2-11.3-10.7-16.3-15.1-16.3c-4.6,0-4.8,2.9-4.8,14v21.6c0,19.2,1.2,21,10.3,22.3
		l5.6,0.8c1.6,1.4,1.6,6,0,7.2c-10.7-0.4-20.7-0.6-30.4-0.6c-9.1,0-19.5,0.2-30.2,0.6c-1.6-1.2-1.6-6,0-7.2l5.6-0.8
		c9.1-1.2,10.3-3.1,10.3-22.3v-76.6c0-19.2-1.2-21-10.3-22.3l-5.6-0.8c-2.2-1.2-2.2-6,0-7.2c10.1,0.4,20.1,0.6,30.2,0.6
		c9.7,0,19.7-0.2,30.4-0.6c1.8,1.2,1.8,6,0,7.2l-5.6,0.8c-9.1,1.2-10.3,3.1-10.3,22.3L455,456.4L455,456.4z"/>
	<path d="M602.3,408.1c-1.6-1.6-1.6-6.6,0.6-7.2c6.8,0.4,15.5,0.6,25.4,0.6c6.6,0,12.5,0,19.7-0.6c0,12.8,7,25.3,15.9,44.7
		l13.3,29.1c1.8,4.1,9.1,17.1,11.9,22.3c2.6-4.9,5.8-11.3,11.3-23.5l10.3-22.7c9.7-21.2,14.7-32.1,19.1-49.9
		c9.3,0.8,13.9,0.6,19.9,0.6c6.6,0,15.9-0.2,23.2-0.6c2.2,1.2,2.2,5.2,0.6,7.2l-5.8,1c-8.3,1.4-12.3,3.9-12.3,14.8
		c0,42.4,0.4,64.7,1.6,90.7c0.4,9.5,1.2,14.4,9.1,15.5l6.4,0.8c1.6,1.6,1.6,6.4-0.4,7.2c-9.3-0.4-17.9-0.6-27.8-0.6
		c-9.1,0-20.1,0.2-29.8,0.6c-2.4-1-2.6-5.8-0.6-7.2l6-0.8c9.3-1.2,9.3-3.7,9.3-16.3l-0.4-53.6v-23.5h-0.4
		c-14.9,33-31,67.4-44.3,102.2c-1,0.8-2.4,1.4-4,1.4c-1.8,0-4-0.4-5.2-1.2c-7.8-25.5-32.6-76.6-43.9-103.4h-0.4
		c-0.8,13.4-1,22.5-1.2,33.2c-0.2,13.4-0.4,34-0.4,46.4c0,10.3,1.2,13.2,9.3,14.4l7.9,1.2c1.6,1.4,1.2,6.2-0.4,7.2
		c-7.4-0.4-16.1-0.6-23.8-0.6c-6.4,0-14.1,0.2-22.1,0.6c-2.6-0.8-2.6-6.2-0.8-7.2l3.6-0.6c10.3-1.9,11.5-3.1,12.7-15.9
		c1-10.1,1.6-28,2.8-47.6c0.8-13.8,1.2-30.5,1.2-41.6c0-11.7-4.4-14.8-12.5-16.3L602.3,408.1z"/>
	<path d="M842.5,480L842.5,480c4.6,0,5.6-0.6,4-6l-5.2-16.7c-2.8-8.9-6.4-20-8.3-24.3c-1.6,4.7-5.6,15.9-8.7,25.3l-5,15.5
		c-1.8,5.6-0.8,6.2,4.2,6.2H842.5z M819.6,491c-4.8,0-5.4,0.2-6.6,4.1l-7.9,23.9c-1.2,4.1-1.4,5.8-1.4,7.4c0,1.2,2.6,2.5,8.3,3.5
		l6,1c1.2,1.4,1.6,6.2-0.4,7.2c-7-0.4-14.3-0.4-22.7-0.6c-6.8,0-11.5,0.6-20.7,0.6c-2.2-1.2-2-5.6-0.6-7.2l5.4-0.6
		c4.8-0.6,8.9-2.3,12.3-10.3c3.4-8.2,7.2-18.1,12.7-33l18.3-50.3c4.6-13,8.1-20.2,7.5-26.2c9.7-2.3,17.1-12.4,17.5-12.4
		c2.6,0,3.8,1,4.6,4.1c1.6,6,4,13.6,9.1,28.2l27.4,80.8c4.2,12.4,6,17.1,13.5,18.3l7.6,1.2c1.2,1,1.6,6-0.2,7.2
		c-9.7-0.4-20.5-0.6-31-0.6c-10.1,0-17.9,0.2-27.2,0.6c-2.2-1.2-2.6-5.6-0.4-7.2l6.4-1c4.6-0.8,5.4-2.3,5.4-3.5
		c0-1.4-1.4-6.4-3.8-14l-5.4-17.7c-1-3.3-2.6-3.7-9.7-3.7h-24L819.6,491L819.6,491z"/>
	<path d="M930.9,431.6c0-19.4-1.2-20.8-10.5-22.3l-7.6-1.2c-1.6-1.2-1.6-6,0-7.2c12.9,0.4,22.9,0.6,32.4,0.6
		c9.7,0,19.7-0.2,30.2-0.6c1.6,1.2,1.6,6,0,7.2l-5.2,1c-9.3,1.9-10.5,3.1-10.5,22.5v74.6c0,16.3-1.2,30.5-4.6,39.8
		c-6.8,18.1-21.5,31.9-47.1,33c-5.6,0.2-15.3-1.2-15.3-8.2c0-3.9,2.4-9.1,5.2-12c1.6-1.6,3.4-2.7,5.6-2.7c3.2,0,6.8,2.5,10.3,5.2
		c3.4,2.7,6.6,5.2,8.9,5.2c4.6,0,5.6-9.7,6.4-16.9c0.4-3.5,1.8-18.5,1.8-40.4L930.9,431.6L930.9,431.6z"/>
	<path d="M1003,431.2c0-19.2-1.2-20.4-10.3-22.3l-5-1c-1.6-1.2-1.8-5.8,0.4-7c9.7,0.4,19.7,0.6,29.4,0.6c9.9,0,19.7-0.2,29.4-0.6
		c1.6,1.2,1.6,5.8,0,7l-4.8,0.8c-9.1,1.6-10.3,3.3-10.3,22.5v47.6c0,24.1,2.6,50.7,33.2,50.7c25.8,0,33.6-23.1,33.6-51.3v-24.9
		c0-16.7-0.8-32.3-3-37.7c-1.8-4.3-6.2-5.6-11.7-6.6l-5.4-1c-1.6-1.6-1.2-5.8,0-7c10.9,0.4,18.7,0.6,27,0.6c7.4,0,14.9-0.2,22.5-0.6
		c1.2,1.2,1.6,5.4,0,7l-3.6,0.8c-5.2,1.2-9.1,2.5-10.9,6.8c-2.2,5.4-3,21-3,37.7v23.1c0,19.4-1.8,37.1-12.9,49.7
		c-8.9,9.7-23.6,14.8-39.9,14.8c-15.3,0-29-2.5-39.9-11.5c-10.5-8.9-14.9-24.1-14.9-46.6v-51.6L1003,431.2L1003,431.2z"/>
	<path class="st1" d="M551.2,342.8c0,10.1-14.5,18.3-32.4,18.3c-17.9,0-32.4-8.2-32.4-18.3c0-10.1,14.5-18.3,32.4-18.3
		C536.7,324.5,551.2,332.7,551.2,342.8"/>
	<path class="st2" d="M545.5,340.2c0,7.4-12,13.4-26.7,13.4c-14.8,0-26.7-6-26.7-13.4s12-13.4,26.7-13.4
		C533.6,326.7,545.5,332.7,545.5,340.2"/>
	<path class="st3" d="M714.2,25.6c-1.2-1-2.8-1.1-4.1-0.3c-5.2,3.6-9.9,6.5-14.2,8.9c-4.9,2.7-9.6,4.8-14.4,6.7
		c-9.9,3.8-20.5,6.5-30.8,9.1c-19.7,5-42.9,11.2-65.5,19.9l-8.4,3.4c-2.6,1.1-5.7,2.5-8.7,4.1c-6.6,3.5-11.9,6.7-16.5,10.2
		c-11,8.1-20.3,18.1-27,29c-14.1,22.9-17.8,51.6-9.7,74.9c0.5,1.4,1.8,2.3,3.2,2.3c0.1,0,0.2,0,0.3,0c1.5-0.1,2.8-1.3,3-2.8
		c4-22.5,13.1-42,26.3-56.5c6.4-7,13.9-13.1,22.4-18.2c5-3,9-5.1,13-6.8l0.5-0.2c2.1-0.9,4.2-1.9,6.3-2.7l13-4.9
		c18.7-7.1,38.1-14.5,57.5-23.5c9.8-4.7,21.2-10.6,31.3-18.9c10.1-8.2,18.1-18.4,23.2-29.5C715.7,28.2,715.3,26.6,714.2,25.6"/>
	<path class="st4" d="M689.4,108.3c-1.2-0.9-2.8-0.9-4,0c-4.7,3.6-8.9,6.5-12.8,8.9c-4.4,2.7-8.6,4.9-12.9,6.8
		c-8.8,3.9-18,6.6-27.8,9.5c-16.9,4.9-38.9,11.7-60,21c-5.8,2.6-11.2,5.5-16,8.5c-5.8,3.8-10.6,7.5-14.6,11.3
		c-9.2,8.6-16.8,18.9-22,30c-5.1,10.9-8.2,23.1-8.9,35.2c-0.4,6.1-0.2,12.1,0.5,17.7c0.8,6.5,2.1,12.1,4.1,17.2
		c0.5,1.3,1.8,2.2,3.1,2.2c0.1,0,0.2,0,0.3,0c1.5-0.1,2.7-1.2,3-2.7c4.5-21.8,12.2-40.1,22.7-54.3c10.2-13.9,23.8-24.3,41.6-32
		l7-3.1c16.3-7.2,33.1-14.6,50-23.4c9-4.9,19.3-11,28.3-19.4c8.8-8.3,15.5-18.4,19.5-29.4C691,110.8,690.6,109.2,689.4,108.3"/>
	<path class="st5" d="M667.7,193.5c-1.2-0.8-2.8-0.7-4,0.2c-6.7,5.6-14.7,11.8-23.1,15.9c-7.8,3.9-16.3,6.8-25.3,9.8
		c-10.7,3.5-19.5,6.7-27.7,10c-3.9,1.5-7.7,3.2-11.5,4.8l-9.2,4.2l-7.2,3.6c-5.3,3-10.2,6.2-14.6,9.7c-5.3,4.4-9.3,8.3-12.7,12.3
		c-7.5,8.8-13.5,19.3-17.3,30.3c-3.7,10.7-5.6,21.8-5.7,33.2c0,3.5,0.2,7,0.5,10.3l0,0c0.1,0.6,0.1,1.3,0.2,1.9
		c0.9,3.9,4.2,6.8,8.3,6.8c3.7,0,6.9-2.5,8-5.9c4.2-13,9.1-24.1,14.9-33.5c8.7-14.3,20.5-25.5,34.8-33.2l25.3-13l2.4-1.2
		c7.7-4.1,15.7-8.3,23.6-13.2c8.2-5,17.7-11.4,25.6-20.1c7.6-8.3,13.1-18.4,16-29.1C669.5,195.8,669,194.3,667.7,193.5"/>
	<path d="M15.9,632.9L15.9,632.9h9.9c5.7,0.1,8.3-2.5,8.3-7.2c0-4.6-2.6-7.2-8.3-7.2h-9.9V632.9z M10.9,614.2h16.7
		c7.6,0,11.7,4.3,11.7,11.5s-4.1,11.6-11.7,11.5H15.9v16h-5.1v-39H10.9z"/>
	<polygon points="69.5,618.6 56.8,618.6 56.8,614.2 87.3,614.2 87.3,618.6 74.6,618.6 74.6,653.2 69.5,653.2 	"/>
	<rect x="101.3" y="647.1" width="5.9" height="6.1"/>
	<path d="M166.8,648.8L166.8,648.8h12.7c4.4,0,7.2-2.7,7.2-7c0-5.1-4-6.5-8.3-6.5h-11.6L166.8,648.8L166.8,648.8z M166.8,631
		L166.8,631h10.1c5.8,0,8.1-2.1,8.1-6.2c0-5.4-3.7-6.2-8.1-6.2h-10.1V631z M161.7,614.2h13.8c3.4,0,7.8,0,10.1,1.4
		c2.5,1.5,4.5,4.3,4.5,8.1c0,4.2-2.1,7.3-5.7,8.7v0.1c4.7,1,7.3,4.6,7.3,9.4c0,5.7-4,11.2-11.6,11.2h-18.4L161.7,614.2L161.7,614.2z
		"/>
	<path d="M218.8,632.9L218.8,632.9h9.9c5.7,0.1,8.3-2.5,8.3-7.2c0-4.6-2.6-7.2-8.3-7.2h-9.9V632.9z M213.7,614.2h16.7
		c7.6,0,11.7,4.3,11.7,11.5s-4.1,11.6-11.7,11.5h-11.6v16h-5.1L213.7,614.2L213.7,614.2z"/>
	<path d="M279.4,632.2L279.4,632.2c4.7,0,8.8-1.3,8.8-6.9c0-3.8-2-6.7-6.8-6.7h-12.6v13.6L279.4,632.2L279.4,632.2z M263.8,614.2
		h17.9c7.2,0,11.6,4,11.6,10.2c0,4.7-2,8.6-6.6,9.9v0.1c4.4,0.9,5.3,4.2,5.7,8c0.3,3.8,0.1,8.1,2.2,10.8H289
		c-1.4-1.6-0.6-5.8-1.4-9.6c-0.5-3.8-1.4-7-6.4-7h-12.4v16.7h-5.1L263.8,614.2L263.8,614.2z"/>
	<polygon points="346.2,614.2 353.1,614.2 365.1,647 377.2,614.2 384.1,614.2 384.1,653.2 379.3,653.2 379.3,620.8 379.2,620.8 
		367.3,653.2 363,653.2 351.1,620.8 351,620.8 351,653.2 346.2,653.2 	"/>
	<path d="M414.6,637.1L414.6,637.1h12.9l-6.4-18.2H421L414.6,637.1z M418.4,614.2h5.6l14.9,39h-5.6l-4.2-11.7H413l-4.3,11.7h-5.2
		L418.4,614.2z"/>
	<path d="M486.6,648.4c-2.9,4.1-7.7,5.8-12.2,5.8c-11.4,0-18.1-9.5-18.1-19.7c0-11.4,6.1-21.2,18.1-21.2c8.3,0,14.9,3.8,16.4,12.9
		h-5.1c-1-5.9-5.7-8.6-11.3-8.6c-9.2,0-13.1,8.2-13.1,16.6c0,8.1,4.6,15.6,13.1,15.6c7.8,0,12.5-5.6,12.2-12.7h-12.2v-4.4h16.7v20.5
		h-3.2L486.6,648.4z"/>
	<path d="M542.5,648.4c-2.9,4.1-7.7,5.8-12.2,5.8c-11.4,0-18.1-9.5-18.1-19.7c0-11.4,6.1-21.2,18.1-21.2c8.3,0,14.9,3.8,16.4,12.9
		h-5.1c-1-5.9-5.7-8.6-11.3-8.6c-9.2,0-13.1,8.2-13.1,16.6c0,8.1,4.6,15.6,13.1,15.6c7.8,0,12.5-5.6,12.2-12.7h-12.2v-4.4H547v20.5
		h-3.2L542.5,648.4z"/>
	<path d="M576.6,637.1L576.6,637.1h12.9l-6.4-18.2H583L576.6,637.1z M580.4,614.2h5.6l14.9,39h-5.6l-4.2-11.7H575l-4.3,11.7h-5.2
		L580.4,614.2z"/>
	<path d="M669.7,643.5c0,5.3-2.7,10.7-11.3,10.7c-7.1,0-11.1-4-11.1-11.4v-2.4h5.1v1.6c0,4.5,1.2,7.8,6.1,7.8c4.6,0,6.1-2.7,6.1-7
		v-28.5h5.1L669.7,643.5L669.7,643.5z"/>
	<path d="M700.1,637.1L700.1,637.1H713l-6.3-18.2h-0.1L700.1,637.1z M703.9,614.2h5.6l14.9,39h-5.6l-4.2-11.7h-16.1l-4.3,11.7H689
		L703.9,614.2z"/>
	<polygon points="755.4,637.3 755.4,653.2 750.3,653.2 750.3,637.3 735.6,614.2 741.6,614.2 753,632.8 764.2,614.2 770,614.2 	"/>
	<path d="M792.3,637.1L792.3,637.1h12.9l-6.4-18.2h-0.1L792.3,637.1z M796.1,614.2h5.6l14.9,39H811l-4.2-11.7h-16.1l-4.3,11.7h-5.2
		L796.1,614.2z"/>
	<path d="M896.5,639.1c0,9.8-5.5,15-15,15c-9.8,0-15.6-4.6-15.6-15v-24.9h5.1v24.9c0,6.9,3.8,10.7,10.6,10.7c6.4,0,9.9-3.8,9.9-10.7
		v-24.9h5.1L896.5,639.1L896.5,639.1z"/>
	<polygon points="928.7,618.6 916,618.6 916,614.2 946.5,614.2 946.5,618.6 933.8,618.6 933.8,653.2 928.7,653.2 	"/>
	<path d="M967.8,637.1L967.8,637.1h12.9l-6.3-18.2h-0.1L967.8,637.1z M971.6,614.2h5.6l14.9,39h-5.6l-4.2-11.7h-16.1l-4.3,11.7h-5.2
		L971.6,614.2z"/>
	<polygon points="1011.4,614.2 1018.4,614.2 1030.4,647 1042.4,614.2 1049.4,614.2 1049.4,653.2 1044.6,653.2 1044.6,620.8 
		1044.5,620.8 1032.6,653.2 1028.2,653.2 1016.3,620.8 1016.2,620.8 1016.2,653.2 1011.4,653.2 	"/>
	<path d="M1079.8,637.1L1079.8,637.1h12.9l-6.3-18.2h-0.1L1079.8,637.1z M1083.6,614.2h5.6l14.9,39h-5.6l-4.2-11.7h-16.1l-4.3,11.7
		h-5.2L1083.6,614.2z"/>
</g>
</svg>
